<svg width="512" height="512" version="1.1" viewBox="0 0 135.47 135.47" xmlns="http://www.w3.org/2000/svg">
 <path d="m65.12 132.62c1.744 1.744 3.4882 1.744 5.2323 0l60.17-60.17c1.744-1.7439 1.3081-3.4882 0-3.4882l-125.57-1.7e-5c-1.3081 0-1.744 1.744 0 3.4882z" fill="#6d88b8" stroke-width=".40634"/>
 <path d="m73.839 61.993h56.683c1.3081 0 1.744-1.744 0-3.4882l-55.811-55.811c-1.744-1.744-3.4882-1.3081-3.4882 0v56.683c0 1.744 0.87205 2.6161 2.6161 2.6161z" fill="#56a36f" stroke-width=".30476"/>
 <path d="m36.341 27.105c-1.744 1.744-1.3081 3.4882 0 3.4882l25.29 1.7e-5c1.744 0 2.6161-0.87203 2.6161-2.6161v-25.29c0-1.3081-1.744-1.744-3.4882 0z" fill="#f44336" stroke-width=".22857"/>
 <rect transform="rotate(-90)" x="-61.993" y="3.798" width="24.418" height="60.449" rx="2.1636" ry="2.2956" fill="#d39337" stroke-width=".72934"/>
</svg>
